<?xml version="1.0" standalone="no"?>
<!DOCTYPE svg PUBLIC "-//W3C//DTD SVG 20010904//EN"
 "http://www.w3.org/TR/2001/REC-SVG-20010904/DTD/svg10.dtd">
<svg version="1.0" xmlns="http://www.w3.org/2000/svg"
 width="1248.000000pt" height="1248.000000pt" viewBox="0 0 1248.000000 1248.000000"
 preserveAspectRatio="xMidYMid meet">
<metadata>
Created by potrace 1.14, written by Peter Selinger 2001-2017
</metadata>
<g transform="translate(0.000000,1248.000000) scale(0.100000,-0.100000)"
fill="#000000" stroke="none">
<path d="M6679 9794 c-1 -12 -5 -30 -24 -94 -17 -59 -23 -81 -24 -92 -1 -4
-40 -19 -88 -34 -49 -16 -92 -31 -96 -34 -4 -4 30 -19 75 -34 46 -15 88 -30
94 -34 11 -7 34 -81 54 -170 13 -57 16 -60 24 -22 3 14 16 62 28 107 l22 81
95 33 c72 25 90 34 75 40 -26 10 -58 20 -64 20 -3 1 -9 4 -15 8 -5 5 -23 11
-40 15 -36 9 -65 33 -65 54 0 14 -9 46 -28 102 -3 8 -7 24 -9 34 -4 22 -13 34
-14 20z"/>
<path d="M9173 9559 c-13 -5 -23 -6 -23 -2 0 3 -7 0 -15 -7 -8 -7 -15 -10 -15
-6 0 9 -141 -44 -200 -76 -84 -46 -122 -70 -155 -95 -47 -37 -49 -38 -71 -53
-126 -88 -534 -487 -711 -696 -82 -96 -163 -195 -190 -230 -12 -16 -34 -45
-50 -65 -15 -20 -35 -47 -43 -60 -8 -12 -22 -30 -30 -38 -8 -9 -53 -73 -99
-141 -47 -69 -89 -126 -93 -128 -4 -2 -8 -7 -8 -12 0 -5 -14 -32 -32 -60 -36
-59 -30 -59 -160 -1 -26 12 -50 21 -53 21 -2 0 -36 15 -74 34 -38 19 -72 31
-75 28 -3 -3 -6 0 -6 6 0 7 -4 12 -9 12 -10 0 -169 71 -223 101 -21 11 -38 17
-38 13 0 -3 -7 -1 -16 7 -14 12 -83 43 -164 74 -19 7 -48 19 -65 26 -16 6 -34
13 -40 15 -5 1 -41 15 -80 29 -38 15 -79 29 -90 31 -27 7 -37 10 -55 17 -13 4
-37 11 -85 23 -5 1 -57 14 -114 28 -57 15 -106 25 -109 22 -2 -3 -12 -1 -21 3
-9 5 -34 11 -56 15 -22 3 -51 8 -65 11 -167 33 -547 38 -705 9 -64 -11 -70
-13 -70 -14 0 -1 -9 -3 -20 -4 -37 -5 -159 -38 -215 -58 -149 -55 -281 -130
-402 -230 -85 -70 -135 -125 -225 -248 -27 -35 -95 -170 -87 -170 3 0 2 -6 -3
-12 -6 -7 -17 -35 -26 -63 -70 -223 -48 -473 58 -663 14 -25 25 -50 24 -56 0
-6 -38 -35 -83 -65 -169 -108 -306 -273 -370 -443 -42 -110 -51 -165 -50 -303
1 -154 37 -271 120 -388 19 -26 34 -53 34 -60 0 -8 -21 -34 -47 -58 -53 -50
-119 -128 -149 -174 -10 -16 -21 -32 -25 -35 -23 -19 -115 -221 -126 -279 -3
-14 -7 -72 -9 -128 -5 -151 35 -273 133 -411 l54 -75 -28 -31 c-15 -17 -31
-32 -35 -34 -5 -2 -8 -10 -8 -18 0 -8 -4 -14 -9 -14 -4 0 -22 -30 -39 -67 -49
-110 -54 -133 -58 -259 -6 -263 141 -515 437 -747 41 -31 79 -61 85 -66 7 -6
47 -34 90 -62 44 -29 81 -56 82 -61 2 -4 7 -8 12 -8 4 0 82 -44 172 -99 237
-143 477 -260 588 -286 8 -2 40 -10 70 -18 84 -23 146 -30 245 -30 171 1 302
38 453 129 45 28 57 31 90 23 59 -13 95 -20 122 -24 14 -2 36 -6 50 -9 60 -13
167 -19 330 -18 139 0 198 4 285 22 61 12 116 22 123 22 6 1 12 4 12 8 0 3 9
6 20 7 24 2 126 38 190 66 25 11 47 21 50 22 51 14 340 190 340 207 0 4 6 8
14 8 8 0 16 3 18 8 2 4 35 34 73 67 312 265 562 630 795 1160 12 28 28 64 35
80 28 62 83 201 95 240 7 22 16 45 21 51 5 6 10 19 12 30 2 10 7 26 10 34 28
65 105 299 100 304 -4 3 0 6 7 6 7 0 10 3 7 7 -4 3 -2 12 4 20 6 7 9 13 6 13
-4 0 1 19 9 43 16 42 82 258 89 287 1 8 13 49 25 90 12 41 23 80 25 85 1 6 4
15 5 20 36 124 60 213 65 245 1 8 5 22 7 30 6 17 24 81 34 125 4 17 8 32 9 35
2 10 15 65 20 88 11 52 14 65 20 82 3 10 8 31 10 46 2 16 14 70 25 119 26 115
38 174 54 265 3 14 5 25 7 25 1 0 3 9 4 20 1 11 14 85 28 165 15 80 29 158 32
175 5 33 221 472 242 493 7 7 13 20 13 28 0 8 5 14 10 14 6 0 10 6 10 14 0 8
6 21 13 28 7 7 15 18 17 23 5 17 256 403 293 450 40 53 187 290 187 303 0 5 7
15 15 22 8 6 14 15 13 18 -1 4 8 29 21 57 13 27 24 54 25 60 1 5 7 19 13 30 6
11 12 25 12 30 7 50 15 85 20 85 3 0 7 12 7 28 9 164 10 222 2 261 -5 25 -11
62 -14 81 -3 19 -20 64 -37 100 -16 36 -31 68 -31 71 -1 9 -90 119 -96 119 -3
0 -17 11 -31 24 -40 37 -127 83 -194 102 -66 19 -284 28 -322 13z"/>
<path d="M2835 8170 c-5 -8 -10 -19 -11 -25 -1 -5 -18 -71 -39 -145 -20 -74
-40 -150 -45 -168 -10 -40 -27 -62 -49 -62 -17 0 -142 -41 -151 -50 -3 -3 -9
-6 -15 -6 -37 -6 -184 -59 -178 -65 4 -4 58 -23 118 -43 61 -19 144 -47 186
-61 l75 -26 23 -87 c12 -48 23 -94 24 -102 2 -8 5 -19 8 -25 3 -5 16 -58 29
-118 22 -100 34 -117 43 -61 1 11 5 24 9 29 3 6 9 26 14 45 11 50 11 50 14 53
1 1 3 9 5 17 11 45 16 62 38 137 13 45 23 84 20 86 -8 8 24 26 92 52 39 15 77
28 85 30 8 3 59 20 114 39 86 30 96 35 78 45 -11 6 -25 11 -30 11 -5 0 -26 7
-46 15 -20 8 -39 16 -43 17 -5 0 -39 12 -78 25 -38 14 -77 26 -85 28 -8 2 -30
9 -49 17 -31 13 -35 20 -63 113 -16 55 -34 116 -39 135 -5 19 -12 42 -14 50
-2 8 -10 37 -18 65 -10 37 -15 46 -22 35z"/>
<path d="M2019 6659 c-4 -21 -9 -41 -20 -79 -7 -25 -13 -49 -14 -55 -1 -5 -3
-13 -5 -17 -1 -5 -3 -11 -4 -15 -1 -5 -7 -24 -14 -43 -12 -34 -17 -36 -122
-69 -61 -19 -110 -37 -110 -40 0 -5 164 -64 205 -74 20 -5 35 -19 30 -27 -3
-5 0 -21 5 -36 6 -14 13 -43 16 -63 3 -20 10 -41 15 -47 5 -7 9 -16 7 -20 -1
-5 1 -25 5 -44 8 -35 8 -35 32 40 14 41 30 99 36 127 8 36 20 58 36 68 12 9
23 13 23 9 0 -4 7 -1 15 6 8 7 15 9 15 5 0 -4 6 -3 13 2 6 6 40 19 74 29 35
10 63 21 63 24 0 5 -159 61 -188 66 -26 5 -40 26 -57 87 -10 34 -16 62 -15 62
2 0 -2 9 -8 21 -6 11 -13 33 -16 49 -5 24 -15 45 -17 34z"/>
<path d="M10412 5803 c-12 -43 -27 -99 -33 -125 l-13 -46 -70 -22 c-39 -12
-78 -24 -86 -27 -8 -3 -19 -7 -25 -9 -5 -1 -21 -6 -35 -12 -24 -9 -23 -9 15
-23 22 -7 42 -14 45 -14 3 -1 18 -7 33 -13 16 -7 32 -12 37 -12 5 0 21 -5 37
-12 15 -6 32 -12 37 -12 7 -1 34 -81 45 -134 9 -43 14 -60 18 -72 7 -16 9 -27
12 -50 3 -27 17 8 45 115 15 55 29 107 32 116 2 9 48 31 114 55 60 21 110 45
110 52 0 6 -3 11 -7 10 -5 -1 -34 6 -65 15 -32 10 -59 16 -61 15 -2 -2 -10 2
-18 8 -8 6 -26 14 -40 17 -29 7 -38 24 -64 122 -9 33 -19 67 -22 75 -3 8 -7
23 -8 32 -4 39 -14 25 -33 -49z"/>
<path d="M9581 4918 c-7 -23 -14 -48 -16 -57 -3 -9 -12 -43 -21 -76 -9 -33
-18 -67 -19 -75 -2 -8 -4 -15 -5 -15 -1 0 -3 -8 -6 -17 -6 -25 -9 -37 -23 -85
l-11 -42 -158 -51 c-86 -28 -164 -53 -172 -57 -19 -8 -42 -14 -57 -15 -21 -2
-14 -18 7 -18 11 0 28 -4 38 -9 14 -8 49 -21 59 -23 1 0 46 -16 100 -35 54
-19 103 -35 108 -37 34 -8 86 -29 82 -33 -3 -2 -1 -19 4 -36 6 -18 12 -43 15
-57 2 -14 7 -32 10 -40 3 -8 8 -25 10 -36 10 -51 64 -257 69 -262 3 -3 6 0 6
6 2 15 4 23 12 42 6 15 27 92 32 121 2 9 10 37 19 62 8 25 18 56 20 69 5 25
37 132 40 135 2 2 40 16 87 33 46 17 91 33 99 37 8 3 20 7 25 8 23 6 159 55
163 60 3 3 3 6 1 8 -5 3 -100 37 -119 42 -8 2 -69 22 -135 44 -116 38 -121 41
-137 78 -9 21 -19 50 -22 63 -3 14 -15 59 -26 100 -12 41 -23 80 -24 85 -7 28
-38 125 -40 125 -2 0 -8 -19 -15 -42z"/>
<path d="M2816 3408 c-24 -92 -24 -92 -25 -110 -1 -11 -22 -24 -68 -39 -38
-13 -70 -24 -73 -24 -26 -5 -50 -19 -44 -25 5 -4 46 -20 92 -35 83 -27 88 -31
95 -70 2 -11 7 -27 10 -35 4 -8 8 -24 10 -35 12 -69 20 -95 27 -88 7 7 37 102
45 143 8 36 24 67 37 67 16 0 140 44 151 54 5 3 -29 19 -75 34 -45 15 -88 31
-93 36 -6 4 -16 29 -23 56 -8 26 -18 58 -23 71 -5 13 -9 32 -9 42 0 41 -18 18
-34 -42z"/>
</g>
</svg>
